<svg xmlns="http://www.w3.org/2000/svg" data-name="Layer 2" viewBox="0 0 512 512" id="loader"><path fill="#e199e9" d="M256.11 105.89a47.44 47.44 0 1 0-47.44-47.44 47.5 47.5 0 0 0 47.44 47.44Z"></path><path fill="#f0ccf4" d="M116.39 163.65a47.42 47.42 0 0 0 33.55-81 47.44 47.44 0 1 0-33.55 81Z"></path><path fill="#2d0032" d="M105.89 255.89a47.44 47.44 0 1 0-47.44 47.44 47.5 47.5 0 0 0 47.44-47.44Z"></path><path fill="#5a0064" d="M82.68 362.07a47.44 47.44 0 1 0 67.09 0 47.5 47.5 0 0 0-67.09 0Z"></path><path fill="#860096" d="M255.89 406.11a47.44 47.44 0 1 0 47.44 47.44 47.5 47.5 0 0 0-47.44-47.44Z"></path><path fill="#b300c8" d="M362.07 362.23a47.5 47.5 0 0 0 0 67.09 47.44 47.44 0 1 0 0-67.09Z"></path><path fill="#c233d3" d="M453.56 208.67A47.44 47.44 0 1 0 501 256.11a47.5 47.5 0 0 0-47.44-47.44Z"></path><path fill="#ec4dff" d="M395.77 163.81a47.3 47.3 0 0 0 33.55-13.87 47.5 47.5 0 1 0-33.55 13.87Z"></path></svg>